<svg xmlns="http://www.w3.org/2000/svg" width="250" height="80" viewBox="0 0 250 80" fill="none"><rect width="250" height="80" rx="15" fill="#2F2D51"></rect><path d="M102.67 29.15H105.932C105.848 29.5327 105.713 29.892 105.526 30.228C105.349 30.564 105.12 30.8627 104.84 31.124C104.56 31.3853 104.224 31.5907 103.832 31.74C103.449 31.88 103.015 31.95 102.53 31.95C102.017 31.95 101.531 31.8567 101.074 31.67C100.626 31.4833 100.234 31.222 99.898 30.886C99.562 30.5407 99.296 30.1347 99.1 29.668C98.9133 29.192 98.82 28.6693 98.82 28.1C98.82 27.5307 98.9133 27.0127 99.1 26.546C99.296 26.07 99.562 25.664 99.898 25.328C100.234 24.9827 100.626 24.7167 101.074 24.53C101.531 24.3433 102.017 24.25 102.53 24.25C103.277 24.25 103.925 24.3993 104.476 24.698C105.027 24.9873 105.456 25.3933 105.764 25.916L106.604 25.146C106.324 24.6887 105.979 24.306 105.568 23.998C105.167 23.69 104.709 23.4567 104.196 23.298C103.692 23.1393 103.137 23.06 102.53 23.06C101.821 23.06 101.163 23.186 100.556 23.438C99.9493 23.6807 99.422 24.0307 98.974 24.488C98.526 24.936 98.176 25.468 97.924 26.084C97.6813 26.7 97.56 27.372 97.56 28.1C97.56 28.828 97.6813 29.5 97.924 30.116C98.176 30.732 98.526 31.2687 98.974 31.726C99.422 32.174 99.9493 32.524 100.556 32.776C101.163 33.0187 101.821 33.14 102.53 33.14C103.277 33.14 103.939 33.0047 104.518 32.734C105.106 32.454 105.601 32.076 106.002 31.6C106.403 31.124 106.707 30.5827 106.912 29.976C107.117 29.36 107.22 28.7113 107.22 28.03H102.67V29.15ZM111.397 33.14C112.088 33.14 112.685 33.0047 113.189 32.734C113.703 32.454 114.127 32.0433 114.463 31.502L113.553 30.928C113.32 31.32 113.035 31.614 112.699 31.81C112.363 31.9967 111.976 32.09 111.537 32.09C111.099 32.09 110.725 31.9967 110.417 31.81C110.109 31.6233 109.876 31.3527 109.717 30.998C109.559 30.6433 109.479 30.214 109.479 29.71C109.479 29.346 109.526 29.0193 109.619 28.73C109.713 28.4407 109.848 28.198 110.025 28.002C110.203 27.806 110.417 27.6567 110.669 27.554C110.931 27.4513 111.22 27.4 111.537 27.4C111.901 27.4 112.219 27.4793 112.489 27.638C112.76 27.7967 112.97 28.016 113.119 28.296C113.278 28.576 113.357 28.9073 113.357 29.29C113.357 29.3553 113.343 29.4393 113.315 29.542C113.287 29.6353 113.259 29.7053 113.231 29.752L113.679 29.108H109.059V30.06H114.561C114.561 30.0413 114.561 29.9993 114.561 29.934C114.571 29.8593 114.575 29.7893 114.575 29.724C114.575 29.0427 114.454 28.4547 114.211 27.96C113.969 27.4653 113.619 27.0873 113.161 26.826C112.713 26.5553 112.172 26.42 111.537 26.42C111.061 26.42 110.627 26.504 110.235 26.672C109.843 26.8307 109.507 27.0593 109.227 27.358C108.947 27.6473 108.728 27.9973 108.569 28.408C108.42 28.8187 108.345 29.276 108.345 29.78C108.345 30.4427 108.471 31.026 108.723 31.53C108.985 32.034 109.344 32.4307 109.801 32.72C110.268 33 110.8 33.14 111.397 33.14ZM115.131 26.56V27.61H118.351V26.56H115.131ZM116.181 24.32V33H117.301V24.32H116.181ZM123.671 23.9C123.671 24.1053 123.746 24.2873 123.895 24.446C124.054 24.5953 124.236 24.67 124.441 24.67C124.656 24.67 124.838 24.5953 124.987 24.446C125.136 24.2873 125.211 24.1053 125.211 23.9C125.211 23.6853 125.136 23.5033 124.987 23.354C124.838 23.2047 124.656 23.13 124.441 23.13C124.236 23.13 124.054 23.2047 123.895 23.354C123.746 23.5033 123.671 23.6853 123.671 23.9ZM123.881 26.56V33H125.001V26.56H123.881ZM131.438 29.08V33H132.558V28.94C132.558 28.4173 132.464 27.9693 132.278 27.596C132.1 27.2227 131.848 26.9333 131.522 26.728C131.195 26.5227 130.803 26.42 130.346 26.42C129.926 26.42 129.552 26.5133 129.226 26.7C128.908 26.8867 128.642 27.176 128.428 27.568V26.56H127.308V33H128.428V29.08C128.428 28.7627 128.493 28.4827 128.624 28.24C128.764 27.9973 128.955 27.8107 129.198 27.68C129.45 27.54 129.739 27.47 130.066 27.47C130.364 27.47 130.616 27.5307 130.822 27.652C131.027 27.7733 131.181 27.9553 131.284 28.198C131.386 28.4313 131.438 28.7253 131.438 29.08ZM138.301 29.78C138.301 30.424 138.445 31.0027 138.735 31.516C139.033 32.02 139.435 32.4167 139.939 32.706C140.443 32.9953 141.007 33.14 141.633 33.14C142.267 33.14 142.832 32.9953 143.327 32.706C143.831 32.4167 144.227 32.02 144.517 31.516C144.815 31.0027 144.965 30.424 144.965 29.78C144.965 29.1267 144.815 28.548 144.517 28.044C144.227 27.54 143.831 27.1433 143.327 26.854C142.832 26.5647 142.267 26.42 141.633 26.42C141.007 26.42 140.443 26.5647 139.939 26.854C139.435 27.1433 139.033 27.54 138.735 28.044C138.445 28.548 138.301 29.1267 138.301 29.78ZM139.435 29.78C139.435 29.332 139.528 28.9353 139.715 28.59C139.911 28.2353 140.172 27.96 140.499 27.764C140.835 27.568 141.213 27.47 141.633 27.47C142.053 27.47 142.426 27.568 142.753 27.764C143.089 27.96 143.35 28.2353 143.537 28.59C143.733 28.9353 143.831 29.332 143.831 29.78C143.831 30.228 143.733 30.6247 143.537 30.97C143.35 31.3153 143.089 31.5907 142.753 31.796C142.426 31.992 142.053 32.09 141.633 32.09C141.213 32.09 140.835 31.992 140.499 31.796C140.172 31.5907 139.911 31.3153 139.715 30.97C139.528 30.6247 139.435 30.228 139.435 29.78ZM150.633 29.08V33H151.753V28.94C151.753 28.4173 151.66 27.9693 151.473 27.596C151.296 27.2227 151.044 26.9333 150.717 26.728C150.39 26.5227 149.998 26.42 149.541 26.42C149.121 26.42 148.748 26.5133 148.421 26.7C148.104 26.8867 147.838 27.176 147.623 27.568V26.56H146.503V33H147.623V29.08C147.623 28.7627 147.688 28.4827 147.819 28.24C147.959 27.9973 148.15 27.8107 148.393 27.68C148.645 27.54 148.934 27.47 149.261 27.47C149.56 27.47 149.812 27.5307 150.017 27.652C150.222 27.7733 150.376 27.9553 150.479 28.198C150.582 28.4313 150.633 28.7253 150.633 29.08Z" fill="white"></path><path d="M71.3906 40.2812L54.2031 23.0156L76.0781 35.5938L71.3906 40.2812ZM49.6719 22C48.526 22.5729 47.9531 23.4844 47.9531 24.7344V59.2656C47.9531 60.5156 48.526 61.4271 49.6719 62L69.75 42L49.6719 22ZM82.875 39.6562L78.2656 36.9219L73.1875 42L78.2656 47L82.9531 44.3438C83.6823 43.8229 84.0208 43.0417 83.9688 42C83.9688 40.9583 83.6042 40.1771 82.875 39.6562ZM54.2031 60.9844L76.0781 48.4062L71.3906 43.7188L54.2031 60.9844Z" fill="white"></path><path d="M105.22 51.68H109.52C109.4 52.16 109.22 52.6067 108.98 53.02C108.753 53.4333 108.453 53.8 108.08 54.12C107.72 54.4267 107.293 54.6667 106.8 54.84C106.307 55.0133 105.747 55.1 105.12 55.1C104.427 55.1 103.78 54.98 103.18 54.74C102.593 54.5 102.08 54.1533 101.64 53.7C101.2 53.2467 100.853 52.7067 100.6 52.08C100.36 51.4533 100.24 50.76 100.24 50C100.24 49.24 100.367 48.5467 100.62 47.92C100.873 47.2933 101.22 46.76 101.66 46.32C102.1 45.88 102.613 45.54 103.2 45.3C103.8 45.06 104.44 44.94 105.12 44.94C106.093 44.94 106.92 45.1467 107.6 45.56C108.293 45.96 108.833 46.4933 109.22 47.16L111.14 45.86C110.727 45.2067 110.227 44.6533 109.64 44.2C109.053 43.7333 108.38 43.38 107.62 43.14C106.873 42.8867 106.04 42.76 105.12 42.76C104.067 42.76 103.087 42.94 102.18 43.3C101.287 43.6467 100.507 44.14 99.84 44.78C99.1867 45.42 98.6733 46.1867 98.3 47.08C97.94 47.96 97.76 48.9333 97.76 50C97.76 51.0667 97.94 52.0467 98.3 52.94C98.66 53.8333 99.1667 54.6067 99.82 55.26C100.487 55.9133 101.267 56.42 102.16 56.78C103.053 57.1267 104.027 57.3 105.08 57.3C106.2 57.3 107.193 57.1 108.06 56.7C108.927 56.2867 109.653 55.7267 110.24 55.02C110.827 54.3133 111.267 53.5067 111.56 52.6C111.853 51.68 111.987 50.7067 111.96 49.68H105.22V51.68ZM113.481 52.4C113.481 53.3333 113.694 54.1667 114.121 54.9C114.561 55.62 115.154 56.1867 115.901 56.6C116.661 57 117.507 57.2 118.441 57.2C119.387 57.2 120.234 57 120.981 56.6C121.727 56.1867 122.314 55.62 122.741 54.9C123.181 54.1667 123.401 53.3333 123.401 52.4C123.401 51.4533 123.181 50.62 122.741 49.9C122.314 49.18 121.727 48.62 120.981 48.22C120.234 47.8067 119.387 47.6 118.441 47.6C117.507 47.6 116.661 47.8067 115.901 48.22C115.154 48.62 114.561 49.18 114.121 49.9C113.694 50.62 113.481 51.4533 113.481 52.4ZM115.701 52.4C115.701 51.8267 115.821 51.3267 116.061 50.9C116.301 50.46 116.627 50.12 117.041 49.88C117.454 49.6267 117.921 49.5 118.441 49.5C118.961 49.5 119.427 49.6267 119.841 49.88C120.254 50.12 120.581 50.46 120.821 50.9C121.061 51.3267 121.181 51.8267 121.181 52.4C121.181 52.9733 121.061 53.48 120.821 53.92C120.581 54.3467 120.254 54.6867 119.841 54.94C119.427 55.18 118.961 55.3 118.441 55.3C117.921 55.3 117.454 55.18 117.041 54.94C116.627 54.6867 116.301 54.3467 116.061 53.92C115.821 53.48 115.701 52.9733 115.701 52.4ZM124.75 52.4C124.75 53.3333 124.964 54.1667 125.39 54.9C125.83 55.62 126.424 56.1867 127.17 56.6C127.93 57 128.777 57.2 129.71 57.2C130.657 57.2 131.504 57 132.25 56.6C132.997 56.1867 133.584 55.62 134.01 54.9C134.45 54.1667 134.67 53.3333 134.67 52.4C134.67 51.4533 134.45 50.62 134.01 49.9C133.584 49.18 132.997 48.62 132.25 48.22C131.504 47.8067 130.657 47.6 129.71 47.6C128.777 47.6 127.93 47.8067 127.17 48.22C126.424 48.62 125.83 49.18 125.39 49.9C124.964 50.62 124.75 51.4533 124.75 52.4ZM126.97 52.4C126.97 51.8267 127.09 51.3267 127.33 50.9C127.57 50.46 127.897 50.12 128.31 49.88C128.724 49.6267 129.19 49.5 129.71 49.5C130.23 49.5 130.697 49.6267 131.11 49.88C131.524 50.12 131.85 50.46 132.09 50.9C132.33 51.3267 132.45 51.8267 132.45 52.4C132.45 52.9733 132.33 53.48 132.09 53.92C131.85 54.3467 131.524 54.6867 131.11 54.94C130.697 55.18 130.23 55.3 129.71 55.3C129.19 55.3 128.724 55.18 128.31 54.94C127.897 54.6867 127.57 54.3467 127.33 53.92C127.09 53.48 126.97 52.9733 126.97 52.4ZM136.2 57.62C136.227 58.42 136.427 59.12 136.8 59.72C137.187 60.3333 137.733 60.8133 138.44 61.16C139.147 61.5067 140 61.68 141 61.68C141.84 61.68 142.62 61.5067 143.34 61.16C144.06 60.8133 144.64 60.2733 145.08 59.54C145.533 58.82 145.76 57.9067 145.76 56.8V47.8H143.64V56.8C143.64 57.4933 143.507 58.06 143.24 58.5C142.987 58.94 142.653 59.2667 142.24 59.48C141.827 59.6933 141.393 59.8 140.94 59.8C140.42 59.8 139.967 59.7 139.58 59.5C139.207 59.3133 138.913 59.0533 138.7 58.72C138.487 58.4 138.373 58.0333 138.36 57.62H136.2ZM136.02 52.36C136.02 53.36 136.227 54.2133 136.64 54.92C137.053 55.6267 137.6 56.1667 138.28 56.54C138.96 56.9133 139.7 57.1 140.5 57.1C141.073 57.1 141.6 56.9933 142.08 56.78C142.56 56.5667 142.973 56.26 143.32 55.86C143.667 55.4467 143.933 54.9467 144.12 54.36C144.32 53.7733 144.42 53.1067 144.42 52.36C144.42 51.6133 144.32 50.9467 144.12 50.36C143.933 49.7733 143.667 49.2733 143.32 48.86C142.973 48.4467 142.56 48.1333 142.08 47.92C141.6 47.7067 141.073 47.6 140.5 47.6C139.7 47.6 138.96 47.7867 138.28 48.16C137.6 48.5333 137.053 49.0733 136.64 49.78C136.227 50.4867 136.02 51.3467 136.02 52.36ZM138.26 52.36C138.26 51.7467 138.387 51.2267 138.64 50.8C138.893 50.3733 139.227 50.0467 139.64 49.82C140.067 49.5933 140.527 49.48 141.02 49.48C141.327 49.48 141.633 49.5467 141.94 49.68C142.26 49.8 142.547 49.98 142.8 50.22C143.053 50.46 143.253 50.76 143.4 51.12C143.56 51.48 143.64 51.8933 143.64 52.36C143.64 52.8267 143.56 53.24 143.4 53.6C143.253 53.96 143.053 54.26 142.8 54.5C142.547 54.74 142.26 54.92 141.94 55.04C141.633 55.16 141.327 55.22 141.02 55.22C140.527 55.22 140.067 55.1133 139.64 54.9C139.227 54.6733 138.893 54.3467 138.64 53.92C138.387 53.4933 138.26 52.9733 138.26 52.36ZM148.439 41.4V57H150.599V41.4H148.439ZM157.36 57.2C158.427 57.2 159.34 56.9933 160.1 56.58C160.874 56.1533 161.5 55.5267 161.98 54.7L160.1 53.96C159.807 54.4533 159.44 54.82 159 55.06C158.56 55.3 158.047 55.42 157.46 55.42C156.9 55.42 156.427 55.3 156.04 55.06C155.654 54.8067 155.36 54.4533 155.16 54C154.96 53.5333 154.86 52.9733 154.86 52.32C154.86 51.8133 154.92 51.3733 155.04 51C155.16 50.6133 155.327 50.2933 155.54 50.04C155.767 49.7733 156.034 49.5733 156.34 49.44C156.66 49.3067 157.027 49.24 157.44 49.24C157.894 49.24 158.287 49.34 158.62 49.54C158.967 49.74 159.234 50.02 159.42 50.38C159.62 50.74 159.72 51.1667 159.72 51.66C159.72 51.7533 159.694 51.8667 159.64 52C159.6 52.1333 159.554 52.24 159.5 52.32L160.18 51.4H153.94V52.9H162.04C162.04 52.8467 162.04 52.7667 162.04 52.66C162.054 52.54 162.06 52.42 162.06 52.3C162.06 51.3133 161.874 50.4733 161.5 49.78C161.14 49.0733 160.62 48.5333 159.94 48.16C159.26 47.7867 158.434 47.6 157.46 47.6C156.727 47.6 156.067 47.7133 155.48 47.94C154.894 48.1667 154.387 48.4933 153.96 48.92C153.547 49.3333 153.227 49.84 153 50.44C152.774 51.0267 152.66 51.68 152.66 52.4C152.66 53.36 152.854 54.2 153.24 54.92C153.627 55.64 154.174 56.2 154.88 56.6C155.587 57 156.414 57.2 157.36 57.2ZM170.298 43V57H172.658V43H170.298ZM171.698 45.08H174.518C175.065 45.08 175.538 45.1667 175.938 45.34C176.338 45.5133 176.652 45.7667 176.878 46.1C177.105 46.4333 177.218 46.8533 177.218 47.36C177.218 47.8533 177.105 48.2733 176.878 48.62C176.652 48.9533 176.338 49.2067 175.938 49.38C175.538 49.54 175.065 49.62 174.518 49.62H171.698V51.7H174.518C175.545 51.7 176.432 51.5267 177.178 51.18C177.925 50.82 178.505 50.32 178.918 49.68C179.332 49.0267 179.538 48.2533 179.538 47.36C179.538 46.4667 179.332 45.6933 178.918 45.04C178.505 44.3867 177.925 43.8867 177.178 43.54C176.432 43.18 175.545 43 174.518 43H171.698V45.08ZM181.681 41.4V57H183.841V41.4H181.681ZM187.963 54.14C187.963 53.8467 188.029 53.6 188.163 53.4C188.296 53.2 188.503 53.0467 188.783 52.94C189.076 52.82 189.449 52.76 189.903 52.76C190.423 52.76 190.916 52.8267 191.383 52.96C191.849 53.0933 192.289 53.3067 192.703 53.6V52.5C192.583 52.3533 192.376 52.1933 192.083 52.02C191.789 51.8333 191.416 51.6733 190.963 51.54C190.523 51.4067 189.996 51.34 189.383 51.34C188.623 51.34 187.976 51.46 187.443 51.7C186.909 51.94 186.496 52.28 186.203 52.72C185.923 53.1467 185.783 53.66 185.783 54.26C185.783 54.8867 185.929 55.42 186.223 55.86C186.516 56.3 186.909 56.6333 187.403 56.86C187.896 57.0867 188.429 57.2 189.003 57.2C189.536 57.2 190.056 57.1067 190.563 56.92C191.083 56.72 191.509 56.4267 191.843 56.04C192.189 55.64 192.363 55.1467 192.363 54.56L192.043 53.36C192.043 53.8267 191.936 54.2267 191.723 54.56C191.509 54.8933 191.223 55.1467 190.863 55.32C190.503 55.4933 190.109 55.58 189.683 55.58C189.349 55.58 189.049 55.5267 188.783 55.42C188.529 55.3 188.329 55.1333 188.183 54.92C188.036 54.7067 187.963 54.4467 187.963 54.14ZM187.283 50.2C187.416 50.1067 187.616 49.9933 187.883 49.86C188.163 49.7267 188.489 49.6067 188.863 49.5C189.236 49.3933 189.643 49.34 190.083 49.34C190.363 49.34 190.623 49.3667 190.863 49.42C191.103 49.4733 191.309 49.56 191.483 49.68C191.669 49.8 191.809 49.96 191.903 50.16C191.996 50.3467 192.043 50.58 192.043 50.86V57H194.163V50.44C194.163 49.8267 193.996 49.3133 193.663 48.9C193.329 48.4733 192.869 48.1467 192.283 47.92C191.709 47.6933 191.043 47.58 190.283 47.58C189.429 47.58 188.676 47.7 188.023 47.94C187.369 48.18 186.829 48.4267 186.403 48.68L187.283 50.2ZM204.723 47.8H202.403L199.523 55.02L200.543 55.08L197.603 47.8H195.123L198.843 55.92L196.423 61.4H198.723L204.723 47.8Z" fill="white"></path></svg>