<svg xmlns="http://www.w3.org/2000/svg" width="250" height="80" viewBox="0 0 250 80" fill="none"><rect width="250" height="80" rx="15" fill="#2F2D51"></rect><path d="M99.12 23.2V33H100.31V23.2H99.12ZM102.06 33C102.779 33 103.437 32.8833 104.034 32.65C104.631 32.4167 105.145 32.0853 105.574 31.656C106.013 31.2173 106.353 30.6993 106.596 30.102C106.839 29.4953 106.96 28.828 106.96 28.1C106.96 27.372 106.839 26.7093 106.596 26.112C106.353 25.5053 106.013 24.9873 105.574 24.558C105.145 24.1193 104.631 23.7833 104.034 23.55C103.437 23.3167 102.779 23.2 102.06 23.2H99.778V24.39H102.06C102.611 24.39 103.115 24.4787 103.572 24.656C104.029 24.824 104.421 25.0713 104.748 25.398C105.075 25.7153 105.327 26.1027 105.504 26.56C105.681 27.0173 105.77 27.5307 105.77 28.1C105.77 28.6693 105.681 29.1827 105.504 29.64C105.327 30.0973 105.075 30.4893 104.748 30.816C104.421 31.1333 104.029 31.3807 103.572 31.558C103.115 31.726 102.611 31.81 102.06 31.81H99.778V33H102.06ZM108.006 29.78C108.006 30.424 108.15 31.0027 108.44 31.516C108.738 32.02 109.14 32.4167 109.644 32.706C110.148 32.9953 110.712 33.14 111.338 33.14C111.972 33.14 112.537 32.9953 113.032 32.706C113.536 32.4167 113.932 32.02 114.222 31.516C114.52 31.0027 114.67 30.424 114.67 29.78C114.67 29.1267 114.52 28.548 114.222 28.044C113.932 27.54 113.536 27.1433 113.032 26.854C112.537 26.5647 111.972 26.42 111.338 26.42C110.712 26.42 110.148 26.5647 109.644 26.854C109.14 27.1433 108.738 27.54 108.44 28.044C108.15 28.548 108.006 29.1267 108.006 29.78ZM109.14 29.78C109.14 29.332 109.233 28.9353 109.42 28.59C109.616 28.2353 109.877 27.96 110.204 27.764C110.54 27.568 110.918 27.47 111.338 27.47C111.758 27.47 112.131 27.568 112.458 27.764C112.794 27.96 113.055 28.2353 113.242 28.59C113.438 28.9353 113.536 29.332 113.536 29.78C113.536 30.228 113.438 30.6247 113.242 30.97C113.055 31.3153 112.794 31.5907 112.458 31.796C112.131 31.992 111.758 32.09 111.338 32.09C110.918 32.09 110.54 31.992 110.204 31.796C109.877 31.5907 109.616 31.3153 109.42 30.97C109.233 30.6247 109.14 30.228 109.14 29.78ZM115.023 26.56L117.823 33.49L119.657 28.8L121.603 33.49L124.403 26.56H123.143L121.519 30.774L119.643 26.07L117.893 30.746L116.283 26.56H115.023ZM129.649 29.08V33H130.769V28.94C130.769 28.4173 130.675 27.9693 130.489 27.596C130.311 27.2227 130.059 26.9333 129.733 26.728C129.406 26.5227 129.014 26.42 128.557 26.42C128.137 26.42 127.763 26.5133 127.437 26.7C127.119 26.8867 126.853 27.176 126.639 27.568V26.56H125.519V33H126.639V29.08C126.639 28.7627 126.704 28.4827 126.835 28.24C126.975 27.9973 127.166 27.8107 127.409 27.68C127.661 27.54 127.95 27.47 128.277 27.47C128.575 27.47 128.827 27.5307 129.033 27.652C129.238 27.7733 129.392 27.9553 129.495 28.198C129.597 28.4313 129.649 28.7253 129.649 29.08ZM132.874 22.08V33H133.994V22.08H132.874ZM135.541 29.78C135.541 30.424 135.685 31.0027 135.975 31.516C136.273 32.02 136.675 32.4167 137.179 32.706C137.683 32.9953 138.247 33.14 138.873 33.14C139.507 33.14 140.072 32.9953 140.567 32.706C141.071 32.4167 141.467 32.02 141.757 31.516C142.055 31.0027 142.205 30.424 142.205 29.78C142.205 29.1267 142.055 28.548 141.757 28.044C141.467 27.54 141.071 27.1433 140.567 26.854C140.072 26.5647 139.507 26.42 138.873 26.42C138.247 26.42 137.683 26.5647 137.179 26.854C136.675 27.1433 136.273 27.54 135.975 28.044C135.685 28.548 135.541 29.1267 135.541 29.78ZM136.675 29.78C136.675 29.332 136.768 28.9353 136.955 28.59C137.151 28.2353 137.412 27.96 137.739 27.764C138.075 27.568 138.453 27.47 138.873 27.47C139.293 27.47 139.666 27.568 139.993 27.764C140.329 27.96 140.59 28.2353 140.777 28.59C140.973 28.9353 141.071 29.332 141.071 29.78C141.071 30.228 140.973 30.6247 140.777 30.97C140.59 31.3153 140.329 31.5907 139.993 31.796C139.666 31.992 139.293 32.09 138.873 32.09C138.453 32.09 138.075 31.992 137.739 31.796C137.412 31.5907 137.151 31.3153 136.955 30.97C136.768 30.6247 136.675 30.228 136.675 29.78ZM144.247 31.012C144.247 30.7787 144.303 30.578 144.415 30.41C144.527 30.242 144.695 30.1113 144.919 30.018C145.153 29.9247 145.451 29.878 145.815 29.878C146.207 29.878 146.576 29.9293 146.921 30.032C147.267 30.1253 147.603 30.284 147.929 30.508V29.85C147.864 29.766 147.738 29.6587 147.551 29.528C147.365 29.388 147.113 29.2667 146.795 29.164C146.487 29.052 146.1 28.996 145.633 28.996C145.111 28.996 144.658 29.0847 144.275 29.262C143.902 29.43 143.613 29.668 143.407 29.976C143.211 30.284 143.113 30.648 143.113 31.068C143.113 31.5067 143.216 31.88 143.421 32.188C143.627 32.496 143.897 32.734 144.233 32.902C144.579 33.0607 144.947 33.14 145.339 33.14C145.694 33.14 146.049 33.0747 146.403 32.944C146.767 32.8133 147.071 32.6127 147.313 32.342C147.565 32.0713 147.691 31.7307 147.691 31.32L147.467 30.48C147.467 30.816 147.383 31.1147 147.215 31.376C147.057 31.628 146.837 31.824 146.557 31.964C146.287 32.104 145.979 32.174 145.633 32.174C145.363 32.174 145.12 32.132 144.905 32.048C144.7 31.9547 144.537 31.8193 144.415 31.642C144.303 31.4647 144.247 31.2547 144.247 31.012ZM144.079 28.044C144.182 27.9693 144.322 27.8807 144.499 27.778C144.677 27.6753 144.891 27.5867 145.143 27.512C145.405 27.4373 145.694 27.4 146.011 27.4C146.207 27.4 146.394 27.4187 146.571 27.456C146.749 27.4933 146.903 27.554 147.033 27.638C147.173 27.722 147.281 27.8387 147.355 27.988C147.43 28.128 147.467 28.31 147.467 28.534V33H148.587V28.38C148.587 27.96 148.48 27.6053 148.265 27.316C148.06 27.0267 147.766 26.8073 147.383 26.658C147.01 26.4993 146.571 26.42 146.067 26.42C145.47 26.42 144.957 26.5087 144.527 26.686C144.107 26.8633 143.776 27.0407 143.533 27.218L144.079 28.044ZM155.314 22.08V33H156.434V22.08H155.314ZM149.924 29.78C149.924 30.4707 150.068 31.068 150.358 31.572C150.647 32.076 151.034 32.4633 151.52 32.734C152.005 33.0047 152.537 33.14 153.116 33.14C153.517 33.14 153.881 33.0653 154.208 32.916C154.544 32.7573 154.828 32.5333 155.062 32.244C155.304 31.9547 155.491 31.6047 155.622 31.194C155.752 30.774 155.818 30.3027 155.818 29.78C155.818 29.2573 155.752 28.7907 155.622 28.38C155.491 27.96 155.304 27.6053 155.062 27.316C154.828 27.0267 154.544 26.8073 154.208 26.658C153.881 26.4993 153.517 26.42 153.116 26.42C152.537 26.42 152.005 26.5553 151.52 26.826C151.034 27.0967 150.647 27.484 150.358 27.988C150.068 28.4827 149.924 29.08 149.924 29.78ZM151.058 29.78C151.058 29.2853 151.156 28.8653 151.352 28.52C151.557 28.1747 151.828 27.9133 152.164 27.736C152.5 27.5587 152.864 27.47 153.256 27.47C153.498 27.47 153.741 27.5213 153.984 27.624C154.226 27.7267 154.446 27.876 154.642 28.072C154.847 28.268 155.01 28.5107 155.132 28.8C155.253 29.08 155.314 29.4067 155.314 29.78C155.314 30.1533 155.253 30.4847 155.132 30.774C155.01 31.054 154.847 31.292 154.642 31.488C154.446 31.684 154.226 31.8333 153.984 31.936C153.741 32.0387 153.498 32.09 153.256 32.09C152.864 32.09 152.5 32.0013 152.164 31.824C151.828 31.6467 151.557 31.3853 151.352 31.04C151.156 30.6947 151.058 30.2747 151.058 29.78ZM162.105 29.78C162.105 30.424 162.25 31.0027 162.539 31.516C162.838 32.02 163.239 32.4167 163.743 32.706C164.247 32.9953 164.812 33.14 165.437 33.14C166.072 33.14 166.637 32.9953 167.131 32.706C167.635 32.4167 168.032 32.02 168.321 31.516C168.62 31.0027 168.769 30.424 168.769 29.78C168.769 29.1267 168.62 28.548 168.321 28.044C168.032 27.54 167.635 27.1433 167.131 26.854C166.637 26.5647 166.072 26.42 165.437 26.42C164.812 26.42 164.247 26.5647 163.743 26.854C163.239 27.1433 162.838 27.54 162.539 28.044C162.25 28.548 162.105 29.1267 162.105 29.78ZM163.239 29.78C163.239 29.332 163.333 28.9353 163.519 28.59C163.715 28.2353 163.977 27.96 164.303 27.764C164.639 27.568 165.017 27.47 165.437 27.47C165.857 27.47 166.231 27.568 166.557 27.764C166.893 27.96 167.155 28.2353 167.341 28.59C167.537 28.9353 167.635 29.332 167.635 29.78C167.635 30.228 167.537 30.6247 167.341 30.97C167.155 31.3153 166.893 31.5907 166.557 31.796C166.231 31.992 165.857 32.09 165.437 32.09C165.017 32.09 164.639 31.992 164.303 31.796C163.977 31.5907 163.715 31.3153 163.519 30.97C163.333 30.6247 163.239 30.228 163.239 29.78ZM174.438 29.08V33H175.558V28.94C175.558 28.4173 175.464 27.9693 175.278 27.596C175.1 27.2227 174.848 26.9333 174.522 26.728C174.195 26.5227 173.803 26.42 173.346 26.42C172.926 26.42 172.552 26.5133 172.226 26.7C171.908 26.8867 171.642 27.176 171.428 27.568V26.56H170.308V33H171.428V29.08C171.428 28.7627 171.493 28.4827 171.624 28.24C171.764 27.9973 171.955 27.8107 172.198 27.68C172.45 27.54 172.739 27.47 173.066 27.47C173.364 27.47 173.616 27.5307 173.822 27.652C174.027 27.7733 174.181 27.9553 174.284 28.198C174.386 28.4313 174.438 28.7253 174.438 29.08ZM180.881 26.56V27.61H184.101V26.56H180.881ZM181.931 24.32V33H183.051V24.32H181.931ZM186.344 22.08H185.224V33H186.344V22.08ZM189.354 29.08V33H190.474V28.94C190.474 28.38 190.38 27.9133 190.194 27.54C190.016 27.1667 189.76 26.8867 189.424 26.7C189.097 26.5133 188.71 26.42 188.262 26.42C187.814 26.42 187.417 26.5367 187.072 26.77C186.736 27.0033 186.47 27.3207 186.274 27.722C186.078 28.114 185.98 28.5667 185.98 29.08H186.344C186.344 28.772 186.409 28.4967 186.54 28.254C186.68 28.0113 186.871 27.82 187.114 27.68C187.366 27.54 187.655 27.47 187.982 27.47C188.29 27.47 188.542 27.5307 188.738 27.652C188.943 27.7733 189.097 27.9553 189.2 28.198C189.302 28.4313 189.354 28.7253 189.354 29.08ZM195.071 33.14C195.762 33.14 196.359 33.0047 196.863 32.734C197.377 32.454 197.801 32.0433 198.137 31.502L197.227 30.928C196.994 31.32 196.709 31.614 196.373 31.81C196.037 31.9967 195.65 32.09 195.211 32.09C194.773 32.09 194.399 31.9967 194.091 31.81C193.783 31.6233 193.55 31.3527 193.391 30.998C193.233 30.6433 193.153 30.214 193.153 29.71C193.153 29.346 193.2 29.0193 193.293 28.73C193.387 28.4407 193.522 28.198 193.699 28.002C193.877 27.806 194.091 27.6567 194.343 27.554C194.605 27.4513 194.894 27.4 195.211 27.4C195.575 27.4 195.893 27.4793 196.163 27.638C196.434 27.7967 196.644 28.016 196.793 28.296C196.952 28.576 197.031 28.9073 197.031 29.29C197.031 29.3553 197.017 29.4393 196.989 29.542C196.961 29.6353 196.933 29.7053 196.905 29.752L197.353 29.108H192.733V30.06H198.235C198.235 30.0413 198.235 29.9993 198.235 29.934C198.245 29.8593 198.249 29.7893 198.249 29.724C198.249 29.0427 198.128 28.4547 197.885 27.96C197.643 27.4653 197.293 27.0873 196.835 26.826C196.387 26.5553 195.846 26.42 195.211 26.42C194.735 26.42 194.301 26.504 193.909 26.672C193.517 26.8307 193.181 27.0593 192.901 27.358C192.621 27.6473 192.402 27.9973 192.243 28.408C192.094 28.8187 192.019 29.276 192.019 29.78C192.019 30.4427 192.145 31.026 192.397 31.53C192.659 32.034 193.018 32.4307 193.475 32.72C193.942 33 194.474 33.14 195.071 33.14Z" fill="white"></path><path d="M81.9805 47.9392C80.4989 47.4872 79.168 46.4325 78.0128 44.7751C76.8577 43.1177 76.2801 41.2344 76.2801 39.1752C76.2801 37.2667 76.8326 35.534 77.9124 33.9771C78.5151 33.0982 79.4693 32.1189 80.7751 31.0139C79.9213 29.9593 79.0424 29.1055 78.1635 28.5028C76.6066 27.423 74.8237 26.8705 72.8147 26.8705C71.5843 26.8705 70.1278 27.1719 68.4704 27.7243C66.8131 28.3019 65.6077 28.5781 64.8795 28.5781C64.3019 28.5781 63.1468 28.327 61.4141 27.8248C59.6562 27.3225 58.1998 27.0714 56.9693 27.0714C54.0815 27.0714 51.721 28.2768 49.8376 30.6875C47.9542 33.1233 47 36.2372 47 40.0792C47 44.1975 48.2556 48.3912 50.6914 52.7104C53.1775 57.0296 55.6635 59.2143 58.25 59.2143C59.0787 59.2143 60.1836 58.9381 61.5647 58.3605C62.9208 57.808 64.1261 57.5318 65.1306 57.5318C66.1602 57.5318 67.4408 57.7829 68.9224 58.3354C70.4291 58.8627 71.5843 59.139 72.4381 59.139C74.5725 59.139 76.7321 57.5067 78.8917 54.2171C80.3482 52.0324 81.3527 49.923 81.9805 47.9392ZM72.5385 18.4833C72.5385 18.3075 72.5134 18.1568 72.5134 17.981C72.4883 17.8304 72.4381 17.6546 72.3878 17.4286C69.4749 18.1066 67.3655 19.3371 66.1099 21.1451C64.8544 22.9531 64.2015 25.1127 64.1512 27.5988C65.3315 27.4983 66.1853 27.3477 66.7628 27.1719C67.6669 26.8705 68.5709 26.2679 69.4749 25.3638C70.5296 24.3092 71.308 23.154 71.8103 21.8984C72.2874 20.668 72.5385 19.5128 72.5385 18.4833Z" fill="white"></path><path d="M101.24 53.4H108.64L108.18 51.4H101.7L101.24 53.4ZM104.9 46.96L107.12 52.16L107.18 52.74L109.08 57H111.74L104.9 42.22L98.06 57H100.72L102.66 52.62L102.7 52.1L104.9 46.96ZM115.289 61.4V47.8H113.109V61.4H115.289ZM122.909 52.4C122.909 51.3733 122.702 50.5 122.289 49.78C121.875 49.06 121.329 48.5133 120.649 48.14C119.969 47.7533 119.229 47.56 118.429 47.56C117.842 47.56 117.309 47.6733 116.829 47.9C116.362 48.1267 115.955 48.4533 115.609 48.88C115.275 49.2933 115.015 49.8 114.829 50.4C114.655 50.9867 114.569 51.6533 114.569 52.4C114.569 53.1467 114.655 53.82 114.829 54.42C115.015 55.0067 115.275 55.5133 115.609 55.94C115.955 56.3533 116.362 56.6733 116.829 56.9C117.309 57.1267 117.842 57.24 118.429 57.24C119.229 57.24 119.969 57.0533 120.649 56.68C121.329 56.2933 121.875 55.74 122.289 55.02C122.702 54.3 122.909 53.4267 122.909 52.4ZM120.669 52.4C120.669 53.0133 120.542 53.5333 120.289 53.96C120.035 54.3867 119.702 54.7133 119.289 54.94C118.875 55.1667 118.415 55.28 117.909 55.28C117.602 55.28 117.289 55.22 116.969 55.1C116.662 54.9667 116.382 54.78 116.129 54.54C115.875 54.3 115.669 54 115.509 53.64C115.362 53.28 115.289 52.8667 115.289 52.4C115.289 51.9333 115.362 51.52 115.509 51.16C115.669 50.8 115.875 50.5 116.129 50.26C116.382 50.02 116.662 49.84 116.969 49.72C117.289 49.5867 117.602 49.52 117.909 49.52C118.415 49.52 118.875 49.6333 119.289 49.86C119.702 50.0867 120.035 50.4133 120.289 50.84C120.542 51.2667 120.669 51.7867 120.669 52.4ZM127.046 61.4V47.8H124.866V61.4H127.046ZM134.666 52.4C134.666 51.3733 134.46 50.5 134.046 49.78C133.633 49.06 133.086 48.5133 132.406 48.14C131.726 47.7533 130.986 47.56 130.186 47.56C129.6 47.56 129.066 47.6733 128.586 47.9C128.12 48.1267 127.713 48.4533 127.366 48.88C127.033 49.2933 126.773 49.8 126.586 50.4C126.413 50.9867 126.326 51.6533 126.326 52.4C126.326 53.1467 126.413 53.82 126.586 54.42C126.773 55.0067 127.033 55.5133 127.366 55.94C127.713 56.3533 128.12 56.6733 128.586 56.9C129.066 57.1267 129.6 57.24 130.186 57.24C130.986 57.24 131.726 57.0533 132.406 56.68C133.086 56.2933 133.633 55.74 134.046 55.02C134.46 54.3 134.666 53.4267 134.666 52.4ZM132.426 52.4C132.426 53.0133 132.3 53.5333 132.046 53.96C131.793 54.3867 131.46 54.7133 131.046 54.94C130.633 55.1667 130.173 55.28 129.666 55.28C129.36 55.28 129.046 55.22 128.726 55.1C128.42 54.9667 128.14 54.78 127.886 54.54C127.633 54.3 127.426 54 127.266 53.64C127.12 53.28 127.046 52.8667 127.046 52.4C127.046 51.9333 127.12 51.52 127.266 51.16C127.426 50.8 127.633 50.5 127.886 50.26C128.14 50.02 128.42 49.84 128.726 49.72C129.046 49.5867 129.36 49.52 129.666 49.52C130.173 49.52 130.633 49.6333 131.046 49.86C131.46 50.0867 131.793 50.4133 132.046 50.84C132.3 51.2667 132.426 51.7867 132.426 52.4ZM136.704 41.4V57H138.864V41.4H136.704ZM145.626 57.2C146.693 57.2 147.606 56.9933 148.366 56.58C149.139 56.1533 149.766 55.5267 150.246 54.7L148.366 53.96C148.073 54.4533 147.706 54.82 147.266 55.06C146.826 55.3 146.313 55.42 145.726 55.42C145.166 55.42 144.693 55.3 144.306 55.06C143.919 54.8067 143.626 54.4533 143.426 54C143.226 53.5333 143.126 52.9733 143.126 52.32C143.126 51.8133 143.186 51.3733 143.306 51C143.426 50.6133 143.593 50.2933 143.806 50.04C144.033 49.7733 144.299 49.5733 144.606 49.44C144.926 49.3067 145.293 49.24 145.706 49.24C146.159 49.24 146.553 49.34 146.886 49.54C147.233 49.74 147.499 50.02 147.686 50.38C147.886 50.74 147.986 51.1667 147.986 51.66C147.986 51.7533 147.959 51.8667 147.906 52C147.866 52.1333 147.819 52.24 147.766 52.32L148.446 51.4H142.206V52.9H150.306C150.306 52.8467 150.306 52.7667 150.306 52.66C150.319 52.54 150.326 52.42 150.326 52.3C150.326 51.3133 150.139 50.4733 149.766 49.78C149.406 49.0733 148.886 48.5333 148.206 48.16C147.526 47.7867 146.699 47.6 145.726 47.6C144.993 47.6 144.333 47.7133 143.746 47.94C143.159 48.1667 142.653 48.4933 142.226 48.92C141.813 49.3333 141.493 49.84 141.266 50.44C141.039 51.0267 140.926 51.68 140.926 52.4C140.926 53.36 141.119 54.2 141.506 54.92C141.893 55.64 142.439 56.2 143.146 56.6C143.853 57 144.679 57.2 145.626 57.2ZM159.484 52.48L157.724 53.72C158.031 54.3733 158.444 54.9733 158.964 55.52C159.497 56.0533 160.111 56.4867 160.804 56.82C161.511 57.14 162.271 57.3 163.084 57.3C163.684 57.3 164.257 57.2 164.804 57C165.364 56.8133 165.864 56.54 166.304 56.18C166.744 55.82 167.091 55.3867 167.344 54.88C167.611 54.36 167.744 53.7733 167.744 53.12C167.744 52.5067 167.637 51.9733 167.424 51.52C167.224 51.0533 166.944 50.6533 166.584 50.32C166.237 49.9867 165.857 49.7067 165.444 49.48C165.031 49.2533 164.611 49.0667 164.184 48.92C163.624 48.72 163.137 48.5267 162.724 48.34C162.324 48.1533 161.997 47.96 161.744 47.76C161.491 47.56 161.304 47.3467 161.184 47.12C161.064 46.8933 161.004 46.64 161.004 46.36C161.004 46.0933 161.071 45.8467 161.204 45.62C161.337 45.3933 161.544 45.2133 161.824 45.08C162.117 44.9333 162.477 44.86 162.904 44.86C163.384 44.86 163.797 44.9533 164.144 45.14C164.491 45.3267 164.791 45.5667 165.044 45.86C165.311 46.1533 165.537 46.4733 165.724 46.82L167.644 45.74C167.404 45.2467 167.071 44.7733 166.644 44.32C166.231 43.8667 165.717 43.4933 165.104 43.2C164.491 42.9067 163.771 42.76 162.944 42.76C162.104 42.76 161.351 42.92 160.684 43.24C160.031 43.5467 159.511 43.9867 159.124 44.56C158.737 45.12 158.544 45.7733 158.544 46.52C158.544 47.1733 158.671 47.7333 158.924 48.2C159.177 48.6667 159.497 49.06 159.884 49.38C160.271 49.6867 160.677 49.94 161.104 50.14C161.531 50.34 161.917 50.5 162.264 50.62C162.851 50.8333 163.364 51.0533 163.804 51.28C164.257 51.4933 164.611 51.76 164.864 52.08C165.117 52.3867 165.244 52.8 165.244 53.32C165.244 53.6933 165.151 54.02 164.964 54.3C164.791 54.58 164.544 54.8 164.224 54.96C163.904 55.1067 163.524 55.18 163.084 55.18C162.564 55.18 162.084 55.0667 161.644 54.84C161.217 54.6133 160.824 54.3 160.464 53.9C160.117 53.4867 159.791 53.0133 159.484 52.48ZM168.666 47.8V49.7H173.886V47.8H168.666ZM170.206 44.6V57H172.346V44.6H170.206ZM174.676 52.4C174.676 53.3333 174.889 54.1667 175.316 54.9C175.756 55.62 176.349 56.1867 177.096 56.6C177.856 57 178.703 57.2 179.636 57.2C180.583 57.2 181.429 57 182.176 56.6C182.923 56.1867 183.509 55.62 183.936 54.9C184.376 54.1667 184.596 53.3333 184.596 52.4C184.596 51.4533 184.376 50.62 183.936 49.9C183.509 49.18 182.923 48.62 182.176 48.22C181.429 47.8067 180.583 47.6 179.636 47.6C178.703 47.6 177.856 47.8067 177.096 48.22C176.349 48.62 175.756 49.18 175.316 49.9C174.889 50.62 174.676 51.4533 174.676 52.4ZM176.896 52.4C176.896 51.8267 177.016 51.3267 177.256 50.9C177.496 50.46 177.823 50.12 178.236 49.88C178.649 49.6267 179.116 49.5 179.636 49.5C180.156 49.5 180.623 49.6267 181.036 49.88C181.449 50.12 181.776 50.46 182.016 50.9C182.256 51.3267 182.376 51.8267 182.376 52.4C182.376 52.9733 182.256 53.48 182.016 53.92C181.776 54.3467 181.449 54.6867 181.036 54.94C180.623 55.18 180.156 55.3 179.636 55.3C179.116 55.3 178.649 55.18 178.236 54.94C177.823 54.6867 177.496 54.3467 177.256 53.92C177.016 53.48 176.896 52.9733 176.896 52.4ZM188.786 47.8H186.646V57H188.786V47.8ZM191.526 50.12L192.586 48.28C192.372 48.04 192.119 47.8667 191.826 47.76C191.532 47.6533 191.219 47.6 190.886 47.6C190.419 47.6 189.966 47.7667 189.526 48.1C189.099 48.4333 188.746 48.8867 188.466 49.46C188.199 50.02 188.066 50.6667 188.066 51.4L188.786 51.82C188.786 51.38 188.839 50.9933 188.946 50.66C189.052 50.3267 189.212 50.0733 189.426 49.9C189.652 49.7133 189.946 49.62 190.306 49.62C190.572 49.62 190.792 49.6667 190.966 49.76C191.139 49.84 191.326 49.96 191.526 50.12ZM197.755 57.2C198.822 57.2 199.735 56.9933 200.495 56.58C201.268 56.1533 201.895 55.5267 202.375 54.7L200.495 53.96C200.202 54.4533 199.835 54.82 199.395 55.06C198.955 55.3 198.442 55.42 197.855 55.42C197.295 55.42 196.822 55.3 196.435 55.06C196.048 54.8067 195.755 54.4533 195.555 54C195.355 53.5333 195.255 52.9733 195.255 52.32C195.255 51.8133 195.315 51.3733 195.435 51C195.555 50.6133 195.722 50.2933 195.935 50.04C196.162 49.7733 196.428 49.5733 196.735 49.44C197.055 49.3067 197.422 49.24 197.835 49.24C198.288 49.24 198.682 49.34 199.015 49.54C199.362 49.74 199.628 50.02 199.815 50.38C200.015 50.74 200.115 51.1667 200.115 51.66C200.115 51.7533 200.088 51.8667 200.035 52C199.995 52.1333 199.948 52.24 199.895 52.32L200.575 51.4H194.335V52.9H202.435C202.435 52.8467 202.435 52.7667 202.435 52.66C202.448 52.54 202.455 52.42 202.455 52.3C202.455 51.3133 202.268 50.4733 201.895 49.78C201.535 49.0733 201.015 48.5333 200.335 48.16C199.655 47.7867 198.828 47.6 197.855 47.6C197.122 47.6 196.462 47.7133 195.875 47.94C195.288 48.1667 194.782 48.4933 194.355 48.92C193.942 49.3333 193.622 49.84 193.395 50.44C193.168 51.0267 193.055 51.68 193.055 52.4C193.055 53.36 193.248 54.2 193.635 54.92C194.022 55.64 194.568 56.2 195.275 56.6C195.982 57 196.808 57.2 197.755 57.2Z" fill="white"></path></svg>